<svg width="43" height="39" viewBox="0 0 43 39" fill="none" xmlns="http://www.w3.org/2000/svg">
<g clip-path="url(#clip0_1784_2210)">
<path fill-rule="evenodd" clip-rule="evenodd" d="M21.5 0C9.62125 0 0 8.72625 0 19.5C0 28.1287 6.15437 35.4169 14.7006 38.0006C15.7756 38.1712 16.1787 37.5863 16.1787 37.0744C16.1787 36.6113 16.1519 35.0756 16.1519 33.4425C10.75 34.3444 9.3525 32.2481 8.9225 31.1512C8.68062 30.5906 7.6325 28.86 6.71875 28.3969C5.96625 28.0312 4.89125 27.1294 6.69187 27.105C8.385 27.0806 9.59437 28.5187 9.9975 29.1037C11.9325 32.0531 15.0231 31.2244 16.2594 30.7125C16.4475 29.445 17.0119 28.5919 17.63 28.1044C12.8462 27.6169 7.8475 25.935 7.8475 18.4762C7.8475 16.3556 8.68062 14.6006 10.0513 13.2356C9.83625 12.7481 9.08375 10.7494 10.2662 8.06812C10.2662 8.06812 12.0669 7.55625 16.1787 10.0669C17.8988 9.62813 19.7263 9.40875 21.5538 9.40875C23.3813 9.40875 25.2088 9.62813 26.9288 10.0669C31.0406 7.53188 32.8413 8.06812 32.8413 8.06812C34.0238 10.7494 33.2713 12.7481 33.0563 13.2356C34.4269 14.6006 35.26 16.3312 35.26 18.4762C35.26 25.9594 30.2344 27.6169 25.4506 28.1044C26.23 28.7137 26.9019 29.8838 26.9019 31.7119C26.9019 34.32 26.875 36.4162 26.875 37.0744C26.875 37.5863 27.2781 38.1956 28.3531 38.0006C36.8456 35.4169 43 28.1044 43 19.5C43 8.72625 33.3787 0 21.5 0Z" fill="white"/>
</g>
<defs>
<clipPath id="clip0_1784_2210">
<rect width="43" height="39" fill="white"/>
</clipPath>
</defs>
</svg>
