<svg width="22" height="22" viewBox="0 0 22 22" fill="none" xmlns="http://www.w3.org/2000/svg">
<path d="M15.5963 18.845H6.71611C4.05204 18.845 2.276 17.513 2.276 14.4049V8.18876C2.276 5.08069 4.05204 3.74866 6.71611 3.74866H15.5963C18.2604 3.74866 20.0364 5.08069 20.0364 8.18876V14.4049C20.0364 17.513 18.2604 18.845 15.5963 18.845Z" stroke="white" stroke-width="1.77604" stroke-miterlimit="10" stroke-linecap="round" stroke-linejoin="round"/>
<path d="M2.276 8.63285H3.16402C5.82808 8.63285 6.71611 7.74483 6.71611 5.08077V4.19275M20.0364 8.63285H19.1484C16.4843 8.63285 15.5963 7.74483 15.5963 5.08077V4.19275M2.276 13.961H3.16402C5.82808 13.961 6.71611 14.849 6.71611 17.5131V18.4011M20.0364 13.961H19.1484C16.4843 13.961 15.5963 14.849 15.5963 17.5131V18.4011M11.1562 13.961C11.8627 13.961 12.5404 13.6803 13.04 13.1807C13.5396 12.6811 13.8203 12.0034 13.8203 11.2969C13.8203 10.5904 13.5396 9.91276 13.04 9.41314C12.5404 8.91353 11.8627 8.63285 11.1562 8.63285C10.4497 8.63285 9.77205 8.91353 9.27243 9.41314C8.77282 9.91276 8.49215 10.5904 8.49215 11.2969C8.49215 12.0034 8.77282 12.6811 9.27243 13.1807C9.77205 13.6803 10.4497 13.961 11.1562 13.961Z" stroke="white" stroke-width="1.77604" stroke-miterlimit="10" stroke-linecap="round" stroke-linejoin="round"/>
</svg>
