<svg width="22" height="22" viewBox="0 0 22 22" fill="none" xmlns="http://www.w3.org/2000/svg">
<g clip-path="url(#clip0_2574_3914)">
<path d="M7.60403 5.96871V5.25829C7.60403 3.6865 7.60403 2.41663 10.4457 2.41663H11.8665C14.7082 2.41663 14.7082 3.6865 14.7082 5.25829V5.96871M7.60403 20.177H14.7082C18.278 20.177 18.9174 18.7473 19.1039 17.0068L19.7699 9.90264C20.0096 7.73587 19.388 5.96871 15.5962 5.96871H6.716C2.92416 5.96871 2.30254 7.73587 2.54231 9.90264L3.20832 17.0068C3.39481 18.7473 4.03418 20.177 7.60403 20.177Z" stroke="white" stroke-width="1.77604" stroke-miterlimit="10" stroke-linecap="round" stroke-linejoin="round"/>
<path d="M19.7257 10.4088C17.7242 11.8624 15.387 12.7851 12.9323 13.0906M12.9323 13.0906V12.1849C12.9323 11.2968 12.9323 11.2968 12.0443 11.2968H10.2683C9.38024 11.2968 9.38024 11.2968 9.38024 12.1849V13.0995M12.9323 13.0906C12.9323 14.0586 12.9234 14.8489 11.1563 14.8489C9.398 14.8489 9.38024 14.0675 9.38024 13.0995M2.82666 10.6486C4.82471 12.0161 7.08028 12.842 9.38024 13.0995" stroke="white" stroke-width="1.77604" stroke-miterlimit="10" stroke-linecap="round" stroke-linejoin="round"/>
</g>
<defs>
<clipPath id="clip0_2574_3914">
<rect width="21.3125" height="21.3125" fill="white" transform="translate(0.5 0.640625)"/>
</clipPath>
</defs>
</svg>
