<svg width="22" height="22" viewBox="0 0 22 22" fill="none" xmlns="http://www.w3.org/2000/svg">
<path d="M10.7981 10.2934C10.7092 10.2845 10.6027 10.2845 10.505 10.2934C9.48573 10.2588 8.51999 9.8288 7.81222 9.09454C7.10445 8.36025 6.71029 7.37932 6.71318 6.35947C6.71318 4.18382 8.47146 2.41666 10.656 2.41666C11.1732 2.40732 11.6871 2.49996 12.1685 2.68926C12.6499 2.87856 13.0893 3.16083 13.4617 3.51994C13.8339 3.87906 14.1319 4.30799 14.3384 4.78225C14.545 5.2565 14.6561 5.7668 14.6654 6.28399C14.6747 6.80118 14.5821 7.31515 14.3928 7.79654C14.2035 8.27794 13.9212 8.71733 13.5621 9.08964C13.203 9.46196 12.7741 9.75989 12.2998 9.96644C11.8256 10.173 11.3152 10.2841 10.7981 10.2934ZM6.35797 13.5702C4.20896 15.0088 4.20896 17.3532 6.35797 18.7829C8.80003 20.4168 12.805 20.4168 15.247 18.7829C17.396 17.3443 17.396 14.9999 15.247 13.5702C12.8139 11.9451 8.80891 11.9451 6.35797 13.5702Z" stroke="black" stroke-width="1.77604" stroke-linecap="round" stroke-linejoin="round"/>
</svg>
