<svg width="34" height="36" viewBox="0 0 34 36" fill="none" xmlns="http://www.w3.org/2000/svg">
<path d="M33.5622 10.5841C33.4834 8.67131 33.1942 7.35626 32.78 6.21675C32.3526 5.00719 31.6952 3.92427 30.8338 3.02404C29.9923 2.10979 28.9732 1.39939 27.8556 0.949407C26.7842 0.506296 25.5612 0.196969 23.7731 0.112632C21.9715 0.0211529 21.3996 0 16.8304 0C12.2612 0 11.6893 0.0211529 9.89444 0.10549C8.10626 0.189826 6.8769 0.499428 5.81191 0.942265C4.68091 1.39939 3.66856 2.10265 2.82698 3.02404C1.97231 3.92427 1.30846 5.01433 0.887541 6.20988C0.473304 7.35626 0.184134 8.66416 0.105293 10.577C0.0197745 12.5041 0 13.1159 0 18.0036C0 22.8913 0.0197745 23.503 0.0986157 25.423C0.177457 27.3358 0.466884 28.6509 0.881121 29.7904C1.30846 31 1.97231 32.0829 2.82698 32.9831C3.66856 33.8973 4.68758 34.6078 5.80523 35.0577C6.8769 35.5008 8.09958 35.8102 9.88802 35.8945C11.6826 35.9791 12.2548 36 16.824 36C21.3932 36 21.9651 35.9791 23.76 35.8945C25.5481 35.8102 26.7775 35.5008 27.8425 35.0577C30.1042 34.1223 31.8924 32.2095 32.7669 29.7904C33.1808 28.644 33.4703 27.3358 33.5491 25.423C33.628 23.503 33.6477 22.8913 33.6477 18.0036C33.6477 13.1159 33.641 12.5041 33.5622 10.5841ZM30.5316 25.2824C30.4592 27.0405 30.1831 27.9899 29.953 28.6229C29.3875 30.1912 28.2239 31.4359 26.7577 32.0408C26.166 32.287 25.2721 32.5823 23.6349 32.6595C21.8598 32.7441 21.3274 32.765 16.8371 32.765C12.3467 32.765 11.8077 32.7441 10.039 32.6595C8.39543 32.5823 7.50789 32.287 6.9162 32.0408C6.18659 31.7524 5.52248 31.2953 4.98343 30.6975C4.42461 30.1137 3.99727 29.4105 3.72762 28.63C3.49752 27.9971 3.22145 27.0405 3.14928 25.2895C3.07018 23.3907 3.05067 22.8209 3.05067 18.0176C3.05067 13.2142 3.07018 12.6376 3.14928 10.7459C3.22145 8.98777 3.49752 8.03837 3.72762 7.40543C3.99727 6.6247 4.42461 5.91456 4.99011 5.33767C5.53558 4.73989 6.19301 4.28277 6.92287 3.9946C7.51457 3.74845 8.40879 3.45314 10.0457 3.37567C11.8208 3.29133 12.3534 3.27018 16.8435 3.27018C21.3405 3.27018 21.8729 3.29133 23.6416 3.37567C25.2852 3.45314 26.1727 3.74845 26.7644 3.9946C27.494 4.28277 28.1581 4.73989 28.6972 5.33767C29.256 5.92143 29.6833 6.6247 29.953 7.40543C30.1831 8.03837 30.4592 8.99464 30.5316 10.7459C30.6104 12.6448 30.6302 13.2142 30.6302 18.0176C30.6302 22.8209 30.6104 23.3835 30.5316 25.2824Z" fill="white"/>
<path d="M17.2102 10C13.2297 10 10 13.4552 10 17.7143C10 21.9734 13.2297 25.4286 17.2102 25.4286C21.191 25.4286 24.4205 21.9734 24.4205 17.7143C24.4205 13.4552 21.191 10 17.2102 10ZM17.2102 22.7184C14.6278 22.7184 12.5331 20.4774 12.5331 17.7143C12.5331 14.9511 14.6278 12.7102 17.2102 12.7102C19.7928 12.7102 21.8873 14.9511 21.8873 17.7143C21.8873 20.4774 19.7928 22.7184 17.2102 22.7184Z" fill="white"/>
<path d="M28.8409 9.42873C28.8409 10.8488 27.7648 12.0002 26.4373 12.0002C25.1102 12.0002 24.0341 10.8488 24.0341 9.42873C24.0341 8.00837 25.1102 6.8573 26.4373 6.8573C27.7648 6.8573 28.8409 8.00837 28.8409 9.42873Z" fill="white"/>
</svg>
