<svg width="34" height="36" viewBox="0 0 34 36" fill="none" xmlns="http://www.w3.org/2000/svg">
<path d="M31.5733 0H2.77896C1.43867 0 0.352264 1.16235 0.352264 2.59634V33.4037C0.352264 34.8376 1.43867 36 2.77896 36H31.5733C32.9136 36 34 34.8376 34 33.4037V2.59634C34 1.16235 32.9136 0 31.5733 0V0ZM12.2873 27.2109H8.18993V14.0221H12.2873V27.2109ZM10.2387 12.2212H10.2121C8.8371 12.2212 7.94785 11.2085 7.94785 9.9429C7.94785 8.64871 8.86431 7.66406 10.266 7.66406C11.6676 7.66406 12.5302 8.64871 12.5569 9.9429C12.5569 11.2085 11.6676 12.2212 10.2387 12.2212ZM27.0616 27.2109H22.9647V20.1552C22.9647 18.382 22.3715 17.1727 20.889 17.1727C19.7571 17.1727 19.083 17.9885 18.7867 18.7759C18.6784 19.0577 18.652 19.4516 18.652 19.8457V27.2109H14.5548C14.5548 27.2109 14.6085 15.2595 14.5548 14.0221H18.652V15.8895C19.1965 14.9908 20.1707 13.7126 22.3445 13.7126C25.0402 13.7126 27.0616 15.5976 27.0616 19.6485V27.2109Z" fill="white"/>
</svg>
